<svg width="338" height="214" viewBox="0 0 338 214" fill="none" xmlns="http://www.w3.org/2000/svg">
<g clip-path="url(#clip0_2265_8803)">
<rect width="337.622" height="213.19" rx="11.6058" fill="black"/>
<path opacity="0.7" d="M261 146V148.524V151.048V153.571V156.095V158.619V161.143V163.667H263.524H266.048H268.571H271.095H273.619H276.143H278.667V161.143V158.619V156.095V153.571V151.048V148.524V146H276.143H273.619H271.095H268.571H266.048H263.524H261ZM281.19 146V148.524V151.048H283.714V148.524H286.238V146H283.714H281.19ZM286.238 148.524V151.048H288.762V148.524H286.238ZM288.762 151.048V153.571H291.286H293.81V151.048V148.524V146H291.286V148.524V151.048H288.762ZM288.762 153.571H286.238H283.714H281.19V156.095H283.714H286.238V158.619H283.714V161.143H286.238V163.667H288.762V161.143H291.286V163.667H288.762V166.19H286.238V168.714H288.762H291.286V171.238H293.81V168.714V166.19V163.667V161.143V158.619H291.286V156.095H288.762V153.571ZM291.286 171.238H288.762V173.762H286.238V176.286V178.81H288.762V181.333V183.857H286.238H283.714V181.333H286.238V178.81H283.714V176.286V173.762H281.19V171.238H283.714V173.762H286.238V171.238V168.714H283.714H281.19V166.19H278.667H276.143H273.619V168.714H271.095V171.238H268.571V168.714H271.095V166.19H268.571H266.048V168.714H263.524V171.238V173.762V176.286H266.048V173.762H268.571H271.095H273.619V171.238H276.143V168.714H278.667V171.238H276.143V173.762H278.667V176.286H276.143V178.81H278.667H281.19V181.333V183.857V186.381H283.714V188.905H286.238H288.762H291.286V191.429H288.762H286.238H283.714V188.905H281.19V191.429V193.952H283.714V196.476H281.19V199H283.714H286.238V196.476H288.762V199H291.286H293.81H296.333H298.857V196.476H301.381V199H303.905H306.429H308.952V196.476H306.429H303.905V193.952H301.381V191.429H298.857V193.952H296.333H293.81V196.476H291.286V193.952H293.81V191.429V188.905V186.381H296.333V183.857H293.81H291.286V181.333H293.81V178.81V176.286V173.762H291.286V171.238ZM298.857 191.429V188.905H296.333V191.429H298.857ZM303.905 193.952H306.429H308.952V191.429H306.429H303.905V193.952ZM308.952 191.429H311.476V188.905V186.381V183.857V181.333H308.952H306.429H303.905V178.81H301.381V181.333H298.857V183.857V186.381H301.381V183.857H303.905V186.381V188.905H306.429H308.952V191.429ZM301.381 178.81V176.286H298.857H296.333V178.81H298.857H301.381ZM303.905 178.81H306.429V176.286V173.762V171.238H308.952V173.762H311.476V176.286H314V173.762V171.238H311.476V168.714H314V166.19H311.476H308.952V168.714H306.429V166.19H303.905V168.714H301.381V171.238H303.905V173.762V176.286V178.81ZM301.381 171.238H298.857V173.762H301.381V171.238ZM311.476 176.286H308.952V178.81H311.476V176.286ZM276.143 176.286V173.762H273.619V176.286H276.143ZM273.619 176.286H271.095H268.571H266.048V178.81H268.571H271.095H273.619V176.286ZM263.524 176.286H261V178.81H263.524V176.286ZM263.524 168.714V166.19H261V168.714H263.524ZM281.19 166.19H283.714V163.667V161.143H281.19V163.667V166.19ZM296.333 146V148.524V151.048V153.571V156.095V158.619V161.143V163.667H298.857H301.381H303.905H306.429H308.952H311.476H314V161.143V158.619V156.095V153.571V151.048V148.524V146H311.476H308.952H306.429H303.905H301.381H298.857H296.333ZM263.524 148.524H266.048H268.571H271.095H273.619H276.143V151.048V153.571V156.095V158.619V161.143H273.619H271.095H268.571H266.048H263.524V158.619V156.095V153.571V151.048V148.524ZM298.857 148.524H301.381H303.905H306.429H308.952H311.476V151.048V153.571V156.095V158.619V161.143H308.952H306.429H303.905H301.381H298.857V158.619V156.095V153.571V151.048V148.524ZM266.048 151.048V153.571V156.095V158.619H268.571H271.095H273.619V156.095V153.571V151.048H271.095H268.571H266.048ZM301.381 151.048V153.571V156.095V158.619H303.905H306.429H308.952V156.095V153.571V151.048H306.429H303.905H301.381ZM296.333 166.19V168.714H298.857V166.19H296.333ZM261 181.333V183.857V186.381V188.905V191.429V193.952V196.476V199H263.524H266.048H268.571H271.095H273.619H276.143H278.667V196.476V193.952V191.429V188.905V186.381V183.857V181.333H276.143H273.619H271.095H268.571H266.048H263.524H261ZM263.524 183.857H266.048H268.571H271.095H273.619H276.143V186.381V188.905V191.429V193.952V196.476H273.619H271.095H268.571H266.048H263.524V193.952V191.429V188.905V186.381V183.857ZM266.048 186.381V188.905V191.429V193.952H268.571H271.095H273.619V191.429V188.905V186.381H271.095H268.571H266.048ZM311.476 193.952V196.476H314V193.952H311.476Z" fill="#F6F6F6"/>
<path d="M20.348 62V53.972H21.236V62H20.348ZM17.444 54.548V53.744H24.14V54.548H17.444ZM26.2063 62.12C25.6703 62.12 25.1903 61.992 24.7663 61.736C24.3423 61.472 24.0063 61.12 23.7583 60.68C23.5183 60.24 23.3983 59.744 23.3983 59.192C23.3983 58.632 23.5183 58.132 23.7583 57.692C24.0063 57.244 24.3423 56.892 24.7663 56.636C25.1903 56.372 25.6663 56.24 26.1943 56.24C26.6263 56.24 27.0103 56.328 27.3463 56.504C27.6903 56.672 27.9663 56.912 28.1743 57.224C28.3903 57.528 28.5223 57.884 28.5703 58.292V60.056C28.5223 60.464 28.3903 60.824 28.1743 61.136C27.9663 61.448 27.6903 61.692 27.3463 61.868C27.0103 62.036 26.6303 62.12 26.2063 62.12ZM26.3383 61.316C26.9223 61.316 27.3903 61.12 27.7423 60.728C28.1023 60.336 28.2823 59.82 28.2823 59.18C28.2823 58.756 28.1983 58.384 28.0303 58.064C27.8703 57.736 27.6423 57.484 27.3463 57.308C27.0583 57.124 26.7183 57.032 26.3263 57.032C25.9263 57.032 25.5703 57.124 25.2583 57.308C24.9543 57.492 24.7103 57.748 24.5263 58.076C24.3503 58.396 24.2623 58.764 24.2623 59.18C24.2623 59.596 24.3503 59.964 24.5263 60.284C24.7103 60.604 24.9583 60.856 25.2703 61.04C25.5823 61.224 25.9383 61.316 26.3383 61.316ZM28.2343 62V60.488L28.4023 59.096L28.2343 57.74V56.36H29.0742V62H28.2343ZM32.6618 62.024L30.1898 56.36H31.1138L33.1058 61.088H32.7578L34.8578 56.36H35.7938L33.1418 62.024H32.6618ZM31.1258 64.376L32.6738 61.172L33.1418 62.024L32.0498 64.376H31.1258ZM36.7543 62V53.504H37.5943V62H36.7543ZM41.8533 62.12C41.3093 62.12 40.8133 61.988 40.3653 61.724C39.9253 61.46 39.5733 61.104 39.3093 60.656C39.0533 60.208 38.9253 59.708 38.9253 59.156C38.9253 58.612 39.0533 58.12 39.3093 57.68C39.5733 57.24 39.9253 56.892 40.3653 56.636C40.8133 56.372 41.3093 56.24 41.8533 56.24C42.4053 56.24 42.9013 56.368 43.3413 56.624C43.7813 56.88 44.1293 57.232 44.3853 57.68C44.6493 58.12 44.7813 58.612 44.7813 59.156C44.7813 59.716 44.6493 60.22 44.3853 60.668C44.1293 61.108 43.7813 61.46 43.3413 61.724C42.9013 61.988 42.4053 62.12 41.8533 62.12ZM41.8533 61.304C42.2533 61.304 42.6053 61.212 42.9093 61.028C43.2213 60.844 43.4653 60.588 43.6413 60.26C43.8253 59.932 43.9173 59.564 43.9173 59.156C43.9173 58.748 43.8253 58.388 43.6413 58.076C43.4653 57.756 43.2213 57.504 42.9093 57.32C42.6053 57.136 42.2533 57.044 41.8533 57.044C41.4613 57.044 41.1093 57.136 40.7973 57.32C40.4853 57.504 40.2413 57.756 40.0653 58.076C39.8893 58.388 39.8013 58.748 39.8013 59.156C39.8013 59.572 39.8893 59.944 40.0653 60.272C40.2413 60.592 40.4853 60.844 40.7973 61.028C41.1093 61.212 41.4613 61.304 41.8533 61.304ZM46.1176 62V56.36H46.9576V62H46.1176ZM46.9576 58.712L46.6096 58.556C46.6096 57.844 46.7816 57.28 47.1256 56.864C47.4776 56.448 47.9576 56.24 48.5656 56.24C48.8456 56.24 49.1016 56.292 49.3336 56.396C49.5656 56.492 49.7816 56.648 49.9816 56.864L49.4296 57.452C49.2936 57.3 49.1416 57.192 48.9736 57.128C48.8136 57.064 48.6296 57.032 48.4216 57.032C47.9896 57.032 47.6376 57.176 47.3656 57.464C47.0936 57.744 46.9576 58.16 46.9576 58.712ZM55.9445 62L53.2805 53.744H54.1565L56.4005 60.848H56.1365L58.3565 53.744H59.0165L61.2485 60.848H60.9725L63.2165 53.744H64.1045L61.4285 62H60.7805L58.5605 54.908H58.8125L56.5925 62H55.9445ZM67.0849 62.12C66.5169 62.12 66.0089 61.992 65.5609 61.736C65.1129 61.48 64.7569 61.128 64.4929 60.68C64.2369 60.232 64.1089 59.728 64.1089 59.168C64.1089 58.616 64.2369 58.12 64.4929 57.68C64.7489 57.232 65.0969 56.88 65.5369 56.624C65.9769 56.368 66.4689 56.24 67.0129 56.24C67.5249 56.24 67.9769 56.356 68.3689 56.588C68.7689 56.82 69.0809 57.144 69.3049 57.56C69.5369 57.968 69.6529 58.44 69.6529 58.976C69.6529 59.04 69.6489 59.116 69.6409 59.204C69.6329 59.284 69.6169 59.38 69.5929 59.492H64.7089V58.772H69.1369L68.8369 59.036C68.8449 58.62 68.7729 58.264 68.6209 57.968C68.4769 57.664 68.2649 57.432 67.9849 57.272C67.7129 57.104 67.3809 57.02 66.9889 57.02C66.5809 57.02 66.2249 57.108 65.9209 57.284C65.6169 57.46 65.3769 57.708 65.2009 58.028C65.0329 58.34 64.9489 58.712 64.9489 59.144C64.9489 59.576 65.0369 59.956 65.2129 60.284C65.3969 60.612 65.6489 60.868 65.9689 61.052C66.2969 61.236 66.6729 61.328 67.0969 61.328C67.4409 61.328 67.7569 61.268 68.0449 61.148C68.3329 61.02 68.5769 60.832 68.7769 60.584L69.3169 61.136C69.0529 61.448 68.7249 61.692 68.3329 61.868C67.9489 62.036 67.5329 62.12 67.0849 62.12ZM72.6659 62.12C72.3619 62.12 72.0699 62.08 71.7899 62C71.5099 61.912 71.2539 61.792 71.0219 61.64C70.7979 61.488 70.6019 61.308 70.4339 61.1L70.9739 60.548C71.1979 60.82 71.4499 61.024 71.7299 61.16C72.0179 61.288 72.3379 61.352 72.6899 61.352C73.0659 61.352 73.3579 61.28 73.5659 61.136C73.7819 60.992 73.8899 60.792 73.8899 60.536C73.8899 60.296 73.8139 60.108 73.6619 59.972C73.5099 59.836 73.3139 59.728 73.0739 59.648C72.8419 59.568 72.5939 59.492 72.3299 59.42C72.0659 59.34 71.8139 59.244 71.5739 59.132C71.3339 59.012 71.1379 58.848 70.9859 58.64C70.8419 58.432 70.7699 58.16 70.7699 57.824C70.7699 57.504 70.8459 57.228 70.9979 56.996C71.1579 56.756 71.3819 56.572 71.6699 56.444C71.9659 56.308 72.3139 56.24 72.7139 56.24C73.1379 56.24 73.5219 56.316 73.8659 56.468C74.2099 56.62 74.4859 56.844 74.6939 57.14L74.1539 57.68C73.9859 57.464 73.7739 57.3 73.5179 57.188C73.2699 57.068 72.9899 57.008 72.6779 57.008C72.3179 57.008 72.0419 57.08 71.8499 57.224C71.6659 57.36 71.5739 57.54 71.5739 57.764C71.5739 57.98 71.6499 58.152 71.8019 58.28C71.9539 58.4 72.1459 58.5 72.3779 58.58C72.6179 58.652 72.8699 58.728 73.1339 58.808C73.3979 58.88 73.6499 58.98 73.8899 59.108C74.1299 59.228 74.3219 59.396 74.4659 59.612C74.6179 59.82 74.6939 60.104 74.6939 60.464C74.6939 60.968 74.5099 61.372 74.1419 61.676C73.7819 61.972 73.2899 62.12 72.6659 62.12ZM76.8999 62V53.984H77.7399V62H76.8999ZM75.4719 57.116V56.36H79.1559V57.116H75.4719Z" fill="white"/>
<path d="M29.3685 44V29.3H31.1325V44H29.3685ZM19.2675 44V29.3H21.0525V44H19.2675ZM20.8425 37.238V35.621H29.7465V37.238H20.8425ZM41.758 44L41.653 42.068V33.5H43.333V44H41.758ZM34.282 38.876V33.5H35.962V38.876H34.282ZM35.962 38.876C35.962 39.912 36.081 40.703 36.319 41.249C36.557 41.795 36.886 42.173 37.306 42.383C37.74 42.579 38.223 42.677 38.755 42.677C39.665 42.677 40.372 42.348 40.876 41.69C41.394 41.032 41.653 40.115 41.653 38.939H42.472C42.472 40.045 42.311 40.997 41.989 41.795C41.667 42.593 41.198 43.202 40.582 43.622C39.98 44.042 39.238 44.252 38.356 44.252C37.544 44.252 36.83 44.091 36.214 43.769C35.598 43.433 35.122 42.908 34.786 42.194C34.45 41.466 34.282 40.528 34.282 39.38V38.876H35.962ZM49.9399 44.252C49.1699 44.252 48.4979 44.14 47.9239 43.916C47.3499 43.678 46.8669 43.37 46.4749 42.992C46.0969 42.614 45.8239 42.201 45.6559 41.753L47.1259 41.144C47.3639 41.62 47.7209 42.005 48.1969 42.299C48.6729 42.593 49.1979 42.74 49.7719 42.74C50.4299 42.74 50.9829 42.614 51.4309 42.362C51.8789 42.096 52.1029 41.725 52.1029 41.249C52.1029 40.815 51.9349 40.465 51.5989 40.199C51.2769 39.933 50.7939 39.716 50.1499 39.548L49.1419 39.275C48.1899 39.023 47.4479 38.645 46.9159 38.141C46.3839 37.623 46.1179 37.042 46.1179 36.398C46.1179 35.404 46.4399 34.634 47.0839 34.088C47.7419 33.528 48.7149 33.248 50.0029 33.248C50.6189 33.248 51.1789 33.339 51.6829 33.521C52.1869 33.703 52.6209 33.962 52.9849 34.298C53.3489 34.62 53.6149 35.005 53.7829 35.453L52.3129 36.104C52.1309 35.628 51.8299 35.285 51.4099 35.075C50.9899 34.865 50.4789 34.76 49.8769 34.76C49.2329 34.76 48.7289 34.9 48.3649 35.18C48.0009 35.446 47.8189 35.824 47.8189 36.314C47.8189 36.594 47.9659 36.86 48.2599 37.112C48.5679 37.35 49.0159 37.546 49.6039 37.7L50.6539 37.973C51.3399 38.141 51.9139 38.393 52.3759 38.729C52.8379 39.051 53.1879 39.422 53.4259 39.842C53.6639 40.262 53.7829 40.71 53.7829 41.186C53.7829 41.816 53.6149 42.362 53.2789 42.824C52.9429 43.286 52.4879 43.643 51.9139 43.895C51.3399 44.133 50.6819 44.252 49.9399 44.252ZM56.0471 44V29.3H57.7271V44H56.0471ZM63.4391 44V38.624H65.1191V44H63.4391ZM63.4391 38.624C63.4391 37.588 63.3131 36.797 63.0611 36.251C62.8231 35.705 62.4941 35.334 62.0741 35.138C61.6541 34.928 61.1781 34.823 60.6461 34.823C59.7221 34.823 59.0011 35.152 58.4831 35.81C57.9791 36.454 57.7271 37.371 57.7271 38.561H56.9081C56.9081 37.455 57.0691 36.503 57.3911 35.705C57.7271 34.907 58.2031 34.298 58.8191 33.878C59.4351 33.458 60.1771 33.248 61.0451 33.248C61.8571 33.248 62.5711 33.416 63.1871 33.752C63.8031 34.074 64.2791 34.592 64.6151 35.306C64.9651 36.02 65.1331 36.958 65.1191 38.12V38.624H63.4391ZM67.7571 44V29.3H69.4371V44H67.7571ZM75.1491 44V38.624H76.8291V44H75.1491ZM75.1491 38.624C75.1491 37.588 75.0231 36.797 74.7711 36.251C74.5331 35.705 74.2041 35.334 73.7841 35.138C73.3641 34.928 72.8881 34.823 72.3561 34.823C71.4321 34.823 70.7111 35.152 70.1931 35.81C69.6891 36.454 69.4371 37.371 69.4371 38.561H68.6181C68.6181 37.455 68.7791 36.503 69.1011 35.705C69.4371 34.907 69.9131 34.298 70.5291 33.878C71.1451 33.458 71.8871 33.248 72.7551 33.248C73.5671 33.248 74.2811 33.416 74.8971 33.752C75.5131 34.074 75.9891 34.592 76.3251 35.306C76.6751 36.02 76.8431 36.958 76.8291 38.12V38.624H75.1491ZM85.1385 44V29.3H86.9235V44H85.1385ZM90.8397 44V29.3H95.3127C96.6987 29.3 97.9167 29.615 98.9667 30.245C100.031 30.861 100.864 31.722 101.466 32.828C102.068 33.934 102.369 35.208 102.369 36.65C102.369 38.078 102.068 39.345 101.466 40.451C100.864 41.557 100.031 42.425 98.9667 43.055C97.9167 43.685 96.6987 44 95.3127 44H90.8397ZM92.6247 42.362H95.3127C96.0547 42.362 96.7407 42.222 97.3707 41.942C98.0007 41.648 98.5537 41.235 99.0297 40.703C99.5197 40.171 99.8977 39.562 100.164 38.876C100.444 38.176 100.584 37.434 100.584 36.65C100.584 35.866 100.444 35.131 100.164 34.445C99.8977 33.745 99.5197 33.129 99.0297 32.597C98.5537 32.065 98.0007 31.659 97.3707 31.379C96.7407 31.085 96.0547 30.938 95.3127 30.938H92.6247V42.362ZM114.686 44.252C113.65 44.252 112.733 44.021 111.935 43.559C111.137 43.083 110.514 42.432 110.066 41.606C109.618 40.78 109.394 39.828 109.394 38.75C109.394 37.672 109.611 36.72 110.045 35.894C110.493 35.068 111.116 34.424 111.914 33.962C112.712 33.486 113.622 33.248 114.644 33.248C115.652 33.248 116.555 33.479 117.353 33.941C118.151 34.403 118.76 35.054 119.18 35.894L117.647 36.587C117.367 36.027 116.961 35.593 116.429 35.285C115.897 34.963 115.288 34.802 114.602 34.802C113.916 34.802 113.307 34.97 112.775 35.306C112.257 35.642 111.844 36.111 111.536 36.713C111.242 37.301 111.095 37.98 111.095 38.75C111.095 39.52 111.242 40.206 111.536 40.808C111.844 41.396 112.264 41.858 112.796 42.194C113.342 42.53 113.958 42.698 114.644 42.698C115.33 42.698 115.939 42.523 116.471 42.173C117.017 41.823 117.43 41.333 117.71 40.703L119.243 41.396C118.823 42.292 118.214 42.992 117.416 43.496C116.618 44 115.708 44.252 114.686 44.252ZM127.833 44L127.749 42.278V38.456C127.749 37.63 127.658 36.951 127.476 36.419C127.294 35.873 127.007 35.46 126.615 35.18C126.223 34.9 125.712 34.76 125.082 34.76C124.508 34.76 124.011 34.879 123.591 35.117C123.185 35.341 122.849 35.705 122.583 36.209L121.071 35.621C121.337 35.131 121.659 34.711 122.037 34.361C122.415 33.997 122.856 33.724 123.36 33.542C123.864 33.346 124.438 33.248 125.082 33.248C126.062 33.248 126.867 33.444 127.497 33.836C128.141 34.214 128.624 34.781 128.946 35.537C129.268 36.279 129.422 37.203 129.408 38.309L129.387 44H127.833ZM124.683 44.252C123.451 44.252 122.485 43.972 121.785 43.412C121.099 42.838 120.756 42.047 120.756 41.039C120.756 39.975 121.106 39.163 121.806 38.603C122.52 38.029 123.514 37.742 124.788 37.742H127.791V39.149H125.166C124.186 39.149 123.486 39.31 123.066 39.632C122.66 39.954 122.457 40.416 122.457 41.018C122.457 41.564 122.66 41.998 123.066 42.32C123.472 42.628 124.039 42.782 124.767 42.782C125.369 42.782 125.894 42.656 126.342 42.404C126.79 42.138 127.133 41.767 127.371 41.291C127.623 40.801 127.749 40.227 127.749 39.569H128.463C128.463 40.997 128.141 42.138 127.497 42.992C126.853 43.832 125.915 44.252 124.683 44.252ZM132.994 38.309C132.994 37.175 133.211 36.258 133.645 35.558C134.079 34.844 134.632 34.319 135.304 33.983C135.99 33.633 136.711 33.458 137.467 33.458V35.033C136.851 35.033 136.256 35.138 135.682 35.348C135.122 35.544 134.66 35.873 134.296 36.335C133.932 36.797 133.75 37.427 133.75 38.225L132.994 38.309ZM132.07 44V33.5H133.75V44H132.07ZM146.935 44L146.851 42.047V29.3H148.531V44H146.935ZM143.302 44.252C142.364 44.252 141.538 44.021 140.824 43.559C140.11 43.097 139.55 42.453 139.144 41.627C138.752 40.787 138.556 39.828 138.556 38.75C138.556 37.658 138.752 36.699 139.144 35.873C139.55 35.047 140.11 34.403 140.824 33.941C141.538 33.479 142.364 33.248 143.302 33.248C144.184 33.248 144.954 33.479 145.612 33.941C146.284 34.403 146.802 35.047 147.166 35.873C147.53 36.699 147.712 37.658 147.712 38.75C147.712 39.828 147.53 40.787 147.166 41.627C146.802 42.453 146.284 43.097 145.612 43.559C144.954 44.021 144.184 44.252 143.302 44.252ZM143.68 42.719C144.296 42.719 144.842 42.551 145.318 42.215C145.794 41.879 146.165 41.41 146.431 40.808C146.711 40.206 146.851 39.52 146.851 38.75C146.851 37.98 146.711 37.294 146.431 36.692C146.165 36.09 145.794 35.621 145.318 35.285C144.842 34.949 144.289 34.781 143.659 34.781C143.001 34.781 142.413 34.949 141.895 35.285C141.391 35.621 140.992 36.09 140.698 36.692C140.404 37.294 140.257 37.98 140.257 38.75C140.257 39.52 140.404 40.206 140.698 40.808C140.992 41.41 141.398 41.879 141.916 42.215C142.434 42.551 143.022 42.719 143.68 42.719Z" fill="white"/>
<g clip-path="url(#clip1_2265_8803)">
<mask id="mask0_2265_8803" style="mask-type:alpha" maskUnits="userSpaceOnUse" x="22" y="153" width="128" height="40">
<path d="M53.6459 179.406V167.329C53.6459 166.722 53.1571 166.23 52.5538 166.23H50.1248C49.5215 166.23 49.0327 166.722 49.0327 167.329V179.406C49.0327 187.368 53.133 192.573 59.6258 192.573C61.7572 192.573 63.6898 191.734 65.0803 190.383C65.7741 189.709 66.9292 190.2 66.9292 191.171C66.9292 191.778 67.418 192.271 68.021 192.271H70.4502C71.0533 192.271 71.5424 191.778 71.5424 191.171V167.329C71.5424 166.722 71.0533 166.23 70.4502 166.23H68.021C67.418 166.23 66.9292 166.722 66.9292 167.329V179.367C66.9292 184.357 64.1957 187.924 60.3951 187.924C56.2948 187.924 53.6459 184.615 53.6459 179.406ZM145.382 179.568V191.655C145.382 192.181 145.806 192.608 146.328 192.608H149.039C149.561 192.608 149.985 192.181 149.985 191.655V179.568C149.985 171.553 145.898 166.311 139.318 166.311C137.056 166.311 135.018 167.246 133.605 168.736C133.009 169.365 131.962 168.964 131.962 168.095V154.082C131.962 153.555 131.539 153.129 131.016 153.129H128.306C127.784 153.129 127.36 153.555 127.36 154.082V191.655C127.36 192.181 127.784 192.608 128.306 192.608H131.016C131.539 192.608 131.962 192.181 131.962 191.655V179.611C131.962 174.586 134.758 170.947 138.543 170.947C142.716 170.947 145.382 174.326 145.382 179.568ZM118.501 179.568V191.655C118.501 192.181 118.924 192.608 119.447 192.608H122.157C122.68 192.608 123.103 192.181 123.103 191.655V179.568C123.103 171.553 119.017 166.311 112.436 166.311C110.175 166.311 108.137 167.246 106.724 168.736C106.127 169.365 105.081 168.964 105.081 168.095V154.082C105.081 153.555 104.658 153.129 104.135 153.129H101.425C100.902 153.129 100.479 153.555 100.479 154.082V191.655C100.479 192.181 100.902 192.608 101.425 192.608H104.135C104.658 192.608 105.081 192.181 105.081 191.655V179.611C105.081 174.586 107.877 170.947 111.662 170.947C115.834 170.947 118.501 174.326 118.501 179.568ZM40.3094 179.568V191.655C40.3094 192.181 40.7329 192.608 41.2552 192.608H43.9658C44.4882 192.608 44.9116 192.181 44.9116 191.655V179.568C44.9116 171.553 40.8257 166.311 34.2449 166.311C31.9833 166.311 29.9451 167.246 28.5322 168.736C27.9359 169.365 26.8893 168.964 26.8893 168.095V154.082C26.8893 153.555 26.4659 153.129 25.9435 153.129H23.2332C22.7108 153.129 22.2871 153.555 22.2871 154.082V191.655C22.2871 192.181 22.7108 192.608 23.2332 192.608H25.9435C26.4659 192.608 26.8893 192.181 26.8893 191.655V179.611C26.8893 174.586 29.6854 170.947 33.4705 170.947C37.6428 170.947 40.3094 174.326 40.3094 179.568ZM80.9493 174.034L80.9606 173.959C80.9685 173.907 80.9771 173.851 80.9786 173.84C81.2282 171.798 83.3511 170.258 85.9132 170.258L86.0155 170.258C88.2652 170.258 89.8665 171.198 90.9104 173.132C91.0222 173.339 91.28 173.417 91.4856 173.303C91.6915 173.191 91.7676 172.931 91.6558 172.724C90.4662 170.521 88.5685 169.404 86.0192 169.404L85.9169 169.403C82.8742 169.403 80.4434 171.225 80.137 173.731L80.1223 173.827C80.115 173.876 80.1083 173.921 80.1074 173.927C80.0802 174.159 80.2436 174.368 80.474 174.399C80.4926 174.401 80.5109 174.402 80.5289 174.402C80.737 174.402 80.9187 174.247 80.9493 174.034ZM92.6263 184.45C92.6263 180.539 90.0181 179.574 86.3326 178.638L85.8933 178.523C84.869 178.249 83.1546 177.79 82.0463 176.738C81.8758 176.576 81.6073 176.584 81.4466 176.755C81.2859 176.927 81.2939 177.198 81.4641 177.359C82.7288 178.561 84.5736 179.054 85.6755 179.349L86.1252 179.467C89.9676 180.443 91.778 181.253 91.778 184.45C91.778 186.931 89.4083 188.663 86.0155 188.663C83.4943 188.663 81.3278 187.399 80.3609 185.364C80.2598 185.151 80.0066 185.061 79.7952 185.163C79.5838 185.265 79.4946 185.52 79.5957 185.733C80.7049 188.067 83.1647 189.518 86.0155 189.518C89.9078 189.518 92.6263 187.434 92.6263 184.45ZM89.3823 173.27C89.5562 173.112 89.5702 172.842 89.4135 172.666C88.6507 171.814 87.7205 171.379 86.486 171.298C86.2547 171.285 86.0504 171.461 86.0351 171.697C86.0198 171.933 86.1973 172.136 86.431 172.151C87.4306 172.216 88.1781 172.562 88.7833 173.238C88.8667 173.332 88.9824 173.38 89.0985 173.38C89.1996 173.38 89.3011 173.344 89.3823 173.27ZM93.6754 187.506C94.2317 186.579 94.5136 185.556 94.5136 184.462C94.5136 179.009 90.0184 177.866 86.7362 177.033L86.4014 176.945C84.5583 176.45 82.9041 175.871 82.9038 174.241C82.9108 173.934 82.9817 173.652 83.1146 173.401C83.2249 173.193 83.1467 172.934 82.9399 172.822C82.7327 172.712 82.4764 172.79 82.3662 172.999C82.1703 173.368 82.0659 173.78 82.0555 174.231C82.0555 176.663 84.6393 177.356 86.1829 177.771L86.5285 177.861C89.8736 178.711 93.6653 179.674 93.6653 184.462C93.6653 185.397 93.4246 186.273 92.9495 187.063C92.8282 187.265 92.8924 187.528 93.0928 187.65C93.1612 187.692 93.237 187.712 93.3121 187.712C93.4554 187.712 93.5956 187.638 93.6754 187.506ZM90.9663 190.014C91.1731 189.902 91.2507 189.643 91.1401 189.435C91.0295 189.227 90.7729 189.149 90.5661 189.26C89.2809 189.953 87.7073 190.319 86.0155 190.319C82.7193 190.319 79.7276 188.546 78.5705 185.906C78.5127 185.775 78.4754 185.638 78.4593 185.499C78.4318 185.264 78.2204 185.095 77.9885 185.124C77.7557 185.152 77.5892 185.364 77.6167 185.598C77.6427 185.822 77.7026 186.042 77.7945 186.251C79.0849 189.195 82.3888 191.174 86.0155 191.174C87.8466 191.174 89.5586 190.773 90.9663 190.014ZM90.1097 186.436C90.6568 185.894 90.9461 185.225 90.9461 184.502C90.9461 183.908 90.8074 183.366 90.5334 182.89C90.3877 182.637 90.2001 182.397 89.9762 182.176C89.8085 182.012 89.54 182.014 89.3762 182.183C89.2125 182.352 89.2155 182.622 89.3829 182.787C89.5522 182.954 89.6924 183.133 89.7996 183.319C90.0003 183.667 90.0978 184.054 90.0978 184.502C90.0978 184.998 89.9014 185.443 89.5146 185.827C88.8031 186.533 87.5359 186.942 86.1316 186.918C85.2982 186.906 84.5028 186.707 83.8307 186.343C83.3428 186.079 83.0275 185.704 82.8189 185.456C82.7789 185.409 82.7428 185.366 82.7104 185.33C82.555 185.153 82.287 185.138 82.1114 185.294C81.9366 185.451 81.9211 185.721 82.0769 185.898C82.105 185.93 82.1367 185.967 82.1716 186.009C82.4065 186.288 82.7993 186.755 83.4286 187.096C84.2199 187.525 85.1504 187.759 86.1188 187.773C86.1588 187.774 86.1982 187.774 86.2379 187.774C87.8204 187.774 89.261 187.278 90.1097 186.436ZM86.4744 180.91C86.5318 180.681 86.394 180.448 86.1667 180.391C85.8588 180.313 85.5286 180.236 85.1852 180.163C80.9108 179.256 79.0049 177.446 79.0049 174.296C79.0049 170.838 81.8367 168.514 86.0519 168.514C88.5749 168.514 91.756 169.936 92.7781 173.059C92.8512 173.283 93.0916 173.405 93.3137 173.331C93.5361 173.257 93.657 173.016 93.5837 172.791C92.4296 169.265 88.8703 167.659 86.0519 167.659C81.3293 167.659 78.1562 170.326 78.1562 174.296C78.1562 179 82.068 180.375 85.0102 180.999C85.3425 181.07 85.6618 181.144 85.9593 181.219C85.9941 181.228 86.029 181.232 86.0635 181.232C86.2532 181.232 86.4258 181.103 86.4744 180.91ZM96.1581 184.462C96.1581 181.856 95.5578 180.145 94.2112 178.915C94.038 178.757 93.7695 178.77 93.6121 178.944C93.4548 179.119 93.4679 179.389 93.6415 179.548C94.8106 180.616 95.3097 182.086 95.3097 184.462C95.3097 188.815 91.401 191.975 86.0155 191.975C82.3539 191.975 78.8252 189.957 77.2342 186.954L77.1896 186.871C77.0671 186.646 76.8124 186.178 76.6062 185.49C76.5383 185.264 76.3016 185.136 76.0777 185.205C75.8531 185.273 75.7263 185.511 75.7939 185.737C76.0257 186.511 76.3095 187.032 76.4461 187.282L76.4855 187.356C78.2201 190.63 82.0497 192.83 86.0155 192.83C91.8925 192.83 96.1581 189.311 96.1581 184.462ZM85.0432 182.472C85.1061 182.245 84.9744 182.01 84.7487 181.946C82.7294 181.377 78.5277 180.194 77.4096 176.365C77.3436 176.139 77.1075 176.009 76.8829 176.076C76.6581 176.142 76.5295 176.38 76.5958 176.606C77.8467 180.89 82.5232 182.206 84.5202 182.769C84.5583 182.78 84.5968 182.785 84.6347 182.785C84.8202 182.785 84.9906 182.661 85.0432 182.472ZM77.2126 173.108C77.7976 169.35 81.2548 166.856 85.8451 166.856C85.9114 166.856 85.9786 166.857 86.0455 166.858C86.2868 166.855 86.4725 166.673 86.4763 166.437C86.4799 166.201 86.2929 166.007 86.0586 166.003C80.9291 165.917 77.0363 168.725 76.3743 172.975C76.3379 173.209 76.4962 173.427 76.7274 173.464C76.75 173.468 76.772 173.469 76.794 173.469C76.9993 173.469 77.1796 173.319 77.2126 173.108ZM95.0232 173.276C94.7993 173.276 94.612 173.1 94.5998 172.872C94.5362 172.314 93.3482 168.917 89.6368 167.504C89.4178 167.421 89.3072 167.174 89.39 166.953C89.4728 166.733 89.7175 166.622 89.9368 166.705C94.2439 168.345 95.4188 172.288 95.4472 172.826C95.4597 173.062 95.2801 173.263 95.0461 173.276C95.0385 173.276 95.0308 173.276 95.0232 173.276Z" fill="white"/>
</mask>
<g mask="url(#mask0_2265_8803)">
<path fill-rule="evenodd" clip-rule="evenodd" d="M53.3588 179.277V167.2C53.3588 166.593 52.87 166.101 52.2667 166.101H49.8377C49.2344 166.101 48.7456 166.593 48.7456 167.2V179.277C48.7456 187.239 52.8459 192.444 59.3387 192.444C61.4701 192.444 63.4026 191.606 64.7932 190.254C65.487 189.58 66.6421 190.071 66.6421 191.042C66.6421 191.65 67.1308 192.142 67.7339 192.142H70.1631C70.7662 192.142 71.2553 191.65 71.2553 191.042V167.2C71.2553 166.593 70.7662 166.101 70.1631 166.101H67.7339C67.1308 166.101 66.6421 166.593 66.6421 167.2V179.238C66.6421 184.228 63.9085 187.795 60.108 187.795C56.0077 187.795 53.3588 184.486 53.3588 179.277ZM145.095 179.439V191.526C145.095 192.052 145.519 192.479 146.041 192.479H148.751C149.274 192.479 149.698 192.052 149.698 191.526V179.439C149.698 171.424 145.611 166.182 139.03 166.182C136.769 166.182 134.731 167.118 133.318 168.607C132.722 169.236 131.675 168.835 131.675 167.966V153.953C131.675 153.426 131.252 153 130.729 153H128.019C127.496 153 127.073 153.426 127.073 153.953V191.526C127.073 192.052 127.496 192.479 128.019 192.479H130.729C131.252 192.479 131.675 192.052 131.675 191.526V179.482C131.675 174.457 134.471 170.818 138.256 170.818C142.428 170.818 145.095 174.197 145.095 179.439ZM118.214 179.439V191.526C118.214 192.052 118.637 192.479 119.16 192.479H121.87C122.393 192.479 122.816 192.052 122.816 191.526V179.439C122.816 171.424 118.73 166.182 112.149 166.182C109.888 166.182 107.85 167.118 106.437 168.607C105.84 169.236 104.794 168.835 104.794 167.966V153.953C104.794 153.426 104.371 153 103.848 153H101.138C100.615 153 100.192 153.426 100.192 153.953V191.526C100.192 192.052 100.615 192.479 101.138 192.479H103.848C104.371 192.479 104.794 192.052 104.794 191.526V179.482C104.794 174.457 107.59 170.818 111.375 170.818C115.547 170.818 118.214 174.197 118.214 179.439ZM40.0223 179.439V191.526C40.0223 192.052 40.4457 192.479 40.9681 192.479H43.6787C44.2011 192.479 44.6245 192.052 44.6245 191.526V179.439C44.6245 171.424 40.5386 166.182 33.9578 166.182C31.6962 166.182 29.658 167.118 28.2451 168.607C27.6488 169.236 26.6022 168.835 26.6022 167.966V153.953C26.6022 153.426 26.1788 153 25.6564 153H22.9461C22.4237 153 22 153.426 22 153.953V191.526C22 192.052 22.4237 192.479 22.9461 192.479H25.6564C26.1788 192.479 26.6022 192.052 26.6022 191.526V179.482C26.6022 174.457 29.3983 170.818 33.1834 170.818C37.3557 170.818 40.0223 174.197 40.0223 179.439ZM80.6622 173.906L80.6735 173.83C80.6814 173.778 80.69 173.722 80.6915 173.711C80.9411 171.669 83.0639 170.129 85.6261 170.129L85.7284 170.129C87.978 170.129 89.5794 171.07 90.6233 173.003C90.7351 173.21 90.9929 173.288 91.1985 173.174C91.4044 173.062 91.4805 172.802 91.3687 172.595C90.1791 170.392 88.2814 169.275 85.7321 169.275L85.6297 169.274C82.5871 169.274 80.1563 171.096 79.8499 173.602L79.8352 173.698C79.8279 173.747 79.8212 173.792 79.8203 173.798C79.7931 174.03 79.9565 174.239 80.1868 174.27C80.2055 174.272 80.2238 174.274 80.2418 174.274C80.4499 174.274 80.6316 174.118 80.6622 173.906ZM92.3392 184.321C92.3392 180.41 89.7309 179.446 86.0455 178.51L85.6062 178.394C84.5819 178.12 82.8675 177.662 81.7592 176.609C81.5887 176.447 81.3202 176.455 81.1595 176.626C80.9988 176.798 81.0068 177.069 81.1769 177.23C82.4417 178.432 84.2865 178.925 85.3884 179.22L85.8381 179.338C89.6805 180.314 91.4909 181.124 91.4909 184.321C91.4909 186.802 89.1212 188.534 85.7284 188.534C83.2072 188.534 81.0407 187.27 80.0738 185.235C79.9727 185.022 79.7194 184.932 79.508 185.034C79.2966 185.136 79.2074 185.391 79.3086 185.604C80.4178 187.938 82.8776 189.389 85.7284 189.389C89.6207 189.389 92.3392 187.305 92.3392 184.321ZM89.0952 173.141C89.269 172.983 89.2831 172.713 89.1264 172.538C88.3636 171.685 87.4334 171.25 86.1989 171.17C85.9676 171.156 85.7632 171.332 85.748 171.568C85.7327 171.804 85.9102 172.007 86.1439 172.022C87.1434 172.087 87.891 172.433 88.4962 173.11C88.5796 173.203 88.6953 173.251 88.8114 173.251C88.9125 173.251 89.014 173.215 89.0952 173.141ZM93.3883 187.377C93.9445 186.45 94.2265 185.427 94.2265 184.333C94.2265 178.88 89.7312 177.738 86.4491 176.904L86.1143 176.816C84.2712 176.322 82.617 175.742 82.6167 174.112C82.6237 173.805 82.6946 173.523 82.8275 173.272C82.9378 173.064 82.8596 172.805 82.6528 172.694C82.4456 172.583 82.1893 172.661 82.079 172.87C81.8832 173.239 81.7788 173.651 81.7684 174.102C81.7684 176.534 84.3522 177.227 85.8958 177.642L86.2413 177.732C89.5864 178.582 93.3782 179.546 93.3782 184.333C93.3782 185.268 93.1375 186.144 92.6624 186.934C92.5411 187.136 92.6053 187.399 92.8057 187.521C92.8741 187.563 92.9499 187.583 93.025 187.583C93.1683 187.583 93.3085 187.51 93.3883 187.377ZM90.6792 189.885C90.886 189.774 90.9636 189.514 90.853 189.306C90.7424 189.098 90.4858 189.02 90.279 189.131C88.9938 189.824 87.4202 190.19 85.7284 190.19C82.4322 190.19 79.4405 188.417 78.2833 185.777C78.2256 185.646 78.1883 185.509 78.1721 185.37C78.1446 185.135 77.9332 184.966 77.7014 184.995C77.4686 185.023 77.3021 185.235 77.3296 185.469C77.3556 185.693 77.4154 185.913 77.5074 186.122C78.7978 189.066 82.1017 191.045 85.7284 191.045C87.5595 191.045 89.2715 190.644 90.6792 189.885ZM89.8226 186.307C90.3697 185.765 90.659 185.096 90.659 184.373C90.659 183.779 90.5203 183.237 90.2463 182.762C90.1006 182.508 89.913 182.268 89.6891 182.047C89.5214 181.883 89.2528 181.886 89.0891 182.054C88.9254 182.223 88.9284 182.494 89.0958 182.658C89.2651 182.825 89.4053 183.004 89.5125 183.19C89.7132 183.538 89.8107 183.926 89.8107 184.373C89.8107 184.869 89.6142 185.314 89.2275 185.698C88.516 186.404 87.2488 186.813 85.8445 186.79C85.0111 186.778 84.2156 186.578 83.5436 186.214C83.0557 185.95 82.7404 185.575 82.5318 185.327C82.4918 185.28 82.4557 185.237 82.4233 185.201C82.2678 185.024 81.9999 185.009 81.8243 185.166C81.6495 185.322 81.6339 185.592 81.7897 185.769C81.8179 185.801 81.8496 185.838 81.8844 185.88C82.1194 186.159 82.5122 186.626 83.1415 186.967C83.9328 187.396 84.8633 187.63 85.8317 187.644C85.8717 187.645 85.9111 187.645 85.9508 187.645C87.5332 187.645 88.9739 187.149 89.8226 186.307ZM86.1873 180.781C86.2447 180.552 86.1069 180.319 85.8796 180.262C85.5717 180.184 85.2415 180.107 84.8981 180.034C80.6237 179.127 78.7177 177.318 78.7177 174.167C78.7177 170.709 81.5496 168.385 85.7648 168.385C88.2878 168.385 91.4689 169.807 92.491 172.93C92.5641 173.154 92.8045 173.276 93.0266 173.202C93.249 173.128 93.3699 172.887 93.2966 172.662C92.1425 169.136 88.5832 167.53 85.7648 167.53C81.0422 167.53 77.8691 170.198 77.8691 174.167C77.8691 178.871 81.7809 180.246 84.7231 180.87C85.0554 180.941 85.3747 181.015 85.6722 181.09C85.707 181.099 85.7419 181.103 85.7764 181.103C85.9661 181.103 86.1387 180.974 86.1873 180.781ZM95.871 184.333C95.871 181.727 95.2707 180.016 93.9241 178.786C93.7509 178.628 93.4823 178.641 93.325 178.815C93.1677 178.99 93.1808 179.26 93.3543 179.419C94.5235 180.487 95.0226 181.957 95.0226 184.333C95.0226 188.686 91.1139 191.846 85.7284 191.846C82.0668 191.846 78.5381 189.828 76.9471 186.825L76.9025 186.742C76.78 186.517 76.5252 186.05 76.319 185.361C76.2512 185.135 76.0145 185.007 75.7906 185.076C75.566 185.144 75.4392 185.382 75.5067 185.608C75.7386 186.382 76.0224 186.903 76.159 187.153L76.1984 187.227C77.9329 190.501 81.7626 192.701 85.7284 192.701C91.6054 192.701 95.871 189.182 95.871 184.333ZM84.756 182.343C84.819 182.116 84.6873 181.881 84.4616 181.817C82.4423 181.248 78.2406 180.065 77.1225 176.236C77.0565 176.01 76.8204 175.88 76.5958 175.947C76.371 176.014 76.2424 176.251 76.3087 176.478C77.5596 180.761 82.2361 182.078 84.2331 182.64C84.2712 182.651 84.3097 182.656 84.3476 182.656C84.533 182.656 84.7035 182.532 84.756 182.343ZM76.9254 172.979C77.5105 169.221 80.9677 166.727 85.558 166.727C85.6242 166.727 85.6915 166.728 85.7584 166.729C85.9997 166.726 86.1854 166.544 86.1891 166.308C86.1928 166.072 86.0058 165.878 85.7715 165.874C80.642 165.788 76.7492 168.596 76.0872 172.846C76.0508 173.08 76.2091 173.298 76.4403 173.335C76.4629 173.339 76.4849 173.34 76.5069 173.34C76.7122 173.34 76.8924 173.19 76.9254 172.979ZM94.7361 173.147C94.5122 173.147 94.3249 172.971 94.3127 172.743C94.2491 172.185 93.0611 168.788 89.3497 167.375C89.1307 167.292 89.0201 167.045 89.1029 166.824C89.1856 166.604 89.4303 166.493 89.6497 166.576C93.9568 168.216 95.1317 172.159 95.1601 172.698C95.1726 172.933 94.993 173.134 94.759 173.147C94.7513 173.147 94.7437 173.147 94.7361 173.147Z" fill="white"/>
</g>
</g>
</g>
<defs>
<clipPath id="clip0_2265_8803">
<rect width="337.622" height="213.19" rx="11.6058" fill="white"/>
</clipPath>
<clipPath id="clip1_2265_8803">
<rect width="128" height="40" fill="white" transform="translate(22 153)"/>
</clipPath>
</defs>
</svg>
